<?xml version="1.0" standalone="no"?>
<!DOCTYPE svg PUBLIC "-//W3C//DTD SVG 20010904//EN"
 "http://www.w3.org/TR/2001/REC-SVG-20010904/DTD/svg10.dtd">
<svg version="1.0" xmlns="http://www.w3.org/2000/svg"
 width="512.000000pt" height="512.000000pt" viewBox="0 0 512.000000 512.000000"
 preserveAspectRatio="xMidYMid meet">
<metadata>
Created by potrace 1.14, written by Peter Selinger 2001-2017
</metadata>
<g transform="translate(0.000000,512.000000) scale(0.100000,-0.100000)"
fill="#000000" stroke="none">
<path d="M1965 5094 c-99 -24 -189 -62 -254 -108 -34 -23 -247 -225 -474 -448
-699 -688 -776 -763 -990 -976 -115 -114 -216 -220 -224 -235 -8 -16 -17 -48
-19 -71 -20 -162 147 -286 295 -219 28 12 175 150 457 428 229 226 491 484
582 574 92 89 264 259 382 376 259 256 287 274 422 271 97 -3 163 -32 226
-101 83 -91 105 -212 61 -331 -20 -54 -41 -78 -264 -299 -133 -132 -539 -533
-901 -892 -1224 -1211 -1134 -1117 -1195 -1247 -56 -119 -68 -184 -65 -336 4
-142 14 -194 63 -300 139 -299 464 -465 804 -411 118 19 234 68 325 137 27 20
711 698 1519 1507 1647 1646 1510 1522 1665 1521 100 0 159 -23 223 -87 99
-99 120 -273 48 -390 -10 -16 -419 -430 -908 -920 -567 -569 -906 -916 -935
-957 -79 -115 -143 -266 -162 -380 -3 -19 -8 -46 -11 -60 -7 -33 -7 -215 0
-264 41 -290 203 -547 440 -702 345 -224 754 -223 1284 3 266 114 668 348 719
420 98 138 8 327 -162 337 -62 4 -77 -3 -278 -128 -161 -100 -363 -206 -483
-252 -44 -17 -89 -35 -100 -39 -11 -4 -24 -9 -30 -11 -5 -1 -44 -12 -85 -24
-149 -43 -323 -58 -430 -35 -106 21 -221 88 -301 173 -192 204 -206 525 -32
739 18 23 426 435 906 915 480 480 887 894 905 921 143 207 173 489 76 719
-94 223 -282 379 -521 431 -37 8 -75 15 -83 15 -8 0 -40 1 -70 2 -137 4 -272
-31 -400 -102 -69 -38 -197 -163 -1565 -1531 -1643 -1643 -1528 -1537 -1666
-1543 -234 -10 -388 199 -315 426 20 61 -64 -24 1594 1620 463 459 701 703
724 740 83 135 118 270 113 434 -11 339 -237 611 -576 692 -58 14 -275 13
-334 -2z"/>
</g>
</svg>
